<?xml version="1.0" standalone="no"?>
<!DOCTYPE svg PUBLIC "-//W3C//DTD SVG 20010904//EN"
 "http://www.w3.org/TR/2001/REC-SVG-20010904/DTD/svg10.dtd">
<svg version="1.0" xmlns="http://www.w3.org/2000/svg"
 width="560.000000pt" height="445.000000pt" viewBox="0 0 560.000000 445.000000"
 preserveAspectRatio="xMidYMid meet">

<g transform="translate(0.000000,445.000000) scale(0.100000,-0.100000)"
fill="#000000" stroke="none">
<path d="M2231 3413 c-24 -97 -24 -93 9 -93 31 0 34 3 44 50 l5 25 733 0 733
0 -3 -30 c-1 -16 -5 -40 -8 -53 l-5 -24 -244 4 c-213 3 -245 1 -245 -12 0 -13
32 -15 240 -12 l240 3 0 -28 c-1 -15 -6 -57 -13 -93 l-12 -65 -580 -2 c-401
-1 -581 -5 -583 -12 -5 -14 23 -25 38 -16 12 8 658 10 666 2 3 -3 -12 -21 -33
-41 l-38 -35 -342 -1 -342 0 -57 70 -58 70 -282 0 c-169 0 -285 4 -289 10 -9
15 -35 0 -35 -21 0 -20 24 -26 35 -9 4 6 108 10 280 10 l273 0 51 -59 c28 -32
51 -62 51 -66 0 -4 -99 -5 -220 -3 -121 1 -220 0 -220 -4 0 -5 -1 -11 -2 -14
-2 -3 258 -5 576 -4 l579 1 51 42 c28 23 54 45 57 50 6 8 407 12 415 4 2 -2
-4 -48 -14 -103 l-17 -99 -434 -2 c-292 -1 -437 -5 -444 -12 -6 -6 -7 -11 -2
-11 6 -1 205 0 443 0 l434 1 -6 -28 c-3 -15 -13 -71 -21 -123 -9 -52 -18 -103
-21 -112 -5 -17 -49 -18 -741 -18 l-735 0 6 35 c7 34 6 35 -23 35 -32 0 -38
-15 -44 -95 l-2 -30 354 -3 353 -2 -6 -23 c-3 -12 -6 -27 -6 -33 0 -7 -34 -14
-87 -19 -113 -9 -178 -26 -178 -45 0 -52 472 -66 648 -19 78 21 35 45 -108 61
-88 10 -105 15 -105 29 0 51 -13 49 361 49 l349 0 10 23 c17 38 161 897 155
917 -6 20 -21 20 -790 20 l-784 0 -10 -37z"/>
<path d="M1890 3255 c-7 -8 -9 -15 -4 -15 5 -1 231 0 503 0 l495 1 35 -41 36
-40 255 0 c140 -1 261 -1 268 0 6 0 12 6 12 13 0 9 -58 11 -263 9 l-264 -3
-31 36 -32 36 -482 2 c-266 1 -490 6 -499 10 -10 5 -21 2 -29 -8z"/>
<path d="M1780 2825 c-18 -21 3 -46 22 -27 9 9 105 12 368 12 l357 0 39 -50
39 -49 423 -2 c232 -1 430 -3 439 -3 10 -1 19 6 21 14 2 13 -50 15 -435 12
l-438 -3 -38 46 -38 45 -359 0 c-228 0 -361 4 -365 10 -9 14 -21 12 -35 -5z"/>
<path d="M1940 2710 c0 -13 34 -15 252 -13 201 1 254 4 256 15 2 10 -46 13
-253 13 -220 0 -255 -2 -255 -15z"/>
<path d="M3709 2224 c-17 -21 0 -49 31 -49 31 0 48 28 31 49 -8 9 -21 16 -31
16 -10 0 -23 -7 -31 -16z"/>
<path d="M3874 2226 c-12 -31 0 -51 31 -51 27 0 30 3 30 30 0 25 -4 30 -28 33
-17 2 -29 -2 -33 -12z"/>
<path d="M4041 2221 c-13 -24 8 -55 34 -50 28 6 42 34 26 53 -18 22 -48 20
-60 -3z"/>
<path d="M1666 2205 c-5 -13 105 -15 953 -15 840 0 960 2 971 15 11 13 -96 15
-953 15 -848 0 -966 -2 -971 -15z"/>
<path d="M1996 2115 c-5 -13 103 -15 956 -13 758 2 962 6 966 16 3 9 -193 12
-956 12 -845 0 -961 -2 -966 -15z"/>
<path d="M1567 1822 c-9 -9 -19 -40 -23 -69 l-6 -52 48 -30 c90 -55 89 -54 78
-92 -9 -32 -12 -34 -54 -34 -37 0 -44 3 -42 18 2 13 -4 17 -26 17 -25 0 -30
-5 -34 -29 -8 -53 5 -61 91 -61 62 0 81 4 94 18 16 18 35 105 29 134 -2 10
-30 32 -63 50 -55 30 -60 36 -57 63 3 28 6 30 46 33 37 3 44 0 49 -17 3 -14
14 -21 28 -21 17 0 24 7 29 31 10 49 -6 59 -94 59 -61 0 -80 -4 -93 -18z"/>
<path d="M1970 1826 c0 -8 7 -49 16 -92 16 -75 15 -132 -2 -212 -7 -32 -6 -33
22 -30 26 3 29 7 42 77 7 41 23 93 36 115 13 23 37 67 55 99 l31 57 -28 0
c-23 0 -32 -9 -57 -55 -17 -30 -33 -55 -37 -55 -4 0 -10 17 -13 38 -11 65 -15
72 -41 72 -14 0 -24 -6 -24 -14z"/>
<path d="M2387 1828 c-20 -15 -41 -91 -32 -119 3 -10 30 -32 60 -49 66 -38 69
-42 61 -86 -7 -33 -9 -34 -51 -34 -38 0 -45 3 -45 20 0 16 -7 20 -30 20 -28 0
-30 -2 -30 -39 0 -26 5 -41 16 -45 29 -11 150 -6 167 7 19 13 40 110 31 139
-3 10 -30 32 -60 49 -63 36 -68 42 -60 75 6 21 12 24 51 24 38 0 45 -3 45 -20
0 -33 48 -27 56 7 12 46 -5 58 -87 61 -50 2 -80 -2 -92 -10z"/>
<path d="M2770 1815 c0 -22 4 -25 35 -25 19 0 35 -4 35 -9 0 -4 -11 -68 -25
-141 -14 -73 -25 -137 -25 -142 0 -5 12 -8 28 -6 27 3 27 5 54 148 15 80 27
146 27 147 1 1 18 3 39 5 30 2 38 7 40 26 3 22 2 22 -102 22 l-106 0 0 -25z"/>
<path d="M3192 1822 c-12 -12 -25 -61 -42 -165 -29 -174 -32 -168 80 -165 69
3 75 5 78 26 3 21 0 22 -57 22 -67 0 -68 2 -55 68 6 29 9 31 58 34 44 3 51 6
54 25 3 20 -2 22 -45 25 -45 3 -48 5 -45 28 8 71 7 70 77 70 63 0 65 1 65 25
0 24 -2 25 -75 25 -59 0 -79 -4 -93 -18z"/>
<path d="M3560 1838 c0 -2 -14 -79 -30 -173 -16 -93 -30 -171 -30 -173 0 -2
12 -2 28 0 26 3 28 6 47 116 11 61 24 111 29 109 4 -1 19 -32 32 -67 14 -35
26 -65 27 -67 2 -1 25 29 53 67 48 68 64 83 64 58 0 -13 -25 -153 -35 -195 -5
-20 -1 -23 25 -23 16 0 30 4 30 8 0 9 47 273 56 315 5 25 3 27 -28 27 -30 0
-38 -8 -87 -77 l-55 -76 -13 29 c-7 16 -22 50 -33 77 -17 41 -23 47 -50 47
-16 0 -30 -1 -30 -2z"/>
<path d="M4065 1818 c3 -13 11 -53 19 -90 l13 -68 -39 -67 c-64 -110 -62 -103
-33 -103 20 0 32 11 56 50 30 49 49 63 49 38 0 -7 5 -30 11 -50 8 -31 14 -38
36 -38 21 0 24 4 20 23 -3 12 -11 52 -18 88 l-12 66 47 83 c25 45 46 84 46 86
0 2 -11 4 -24 4 -19 0 -31 -12 -56 -55 -17 -30 -35 -53 -40 -50 -4 3 -11 28
-15 55 -6 47 -9 50 -36 50 -25 0 -29 -3 -24 -22z"/>
</g>
</svg>
